# xmcd
#
# Track frame offsets: 
#        182
#        11427
#        32772
#        47487
#        60697
#        89565
#        101182
#        114930
#        126542
#        137745
#        148485
#        164207
#        177150
#        192337
#        202277
#        212622
#        224080
#        237062
#        251112
#        260782
#        273592
#        285962
#        298672
#        312167
#        328002
#
# Disc length: 4676 seconds
#
# Revision: 0
# Processed by: cddbd v1.5.2PL0 Copyright (c) Steve Scherf et al.
# Submitted via: ExactAudioCopyFreeDBPlugin 1.0
#
DISCID=9e124219
DTITLE=Various Artist - Rites of Rhythm and Blues:  Rhythm and Blues Foun
DTITLE=dation Pioneer Awards
DYEAR=1996
DGENRE=Rhythm and Blues
TTITLE0=Bo Diddley - Bo Diddley
TTITLE1=Jay McShann - Confessin' the Blues
TTITLE2=The Flamingos - Golden Teardrops
TTITLE3=The Cadillacs - Gloria
TTITLE4=Jay McShann - Jumpin' the Blues
TTITLE5=Fats Domino - Ain't it a Shame
TTITLE6=Bo Diddley - I'm a Man
TTITLE7=Smiley Lewis - I Hear You Knocking
TTITLE8=The Chantels - He's Gone
TTITLE9=The Cadillacs - Speedoo
TTITLE10=Johnny "Guitar" Watson - Three Hours Past Midnight
TTITLE11=The Chantels - Maybe
TTITLE12=The Flamingos - I Only Have Eyes for You
TTITLE13=The Isley Brothers - Shout, Part 1
TTITLE14=Betty Everett - The Shoop Shoop Song (It's in His Kiss)
TTITLE15=Doris Troy - Just One Look
TTITLE16=Betty Everett and Jerry Butler - Let it Be Me
TTITLE17=Eddie Floyd - Knock on Wood
TTITLE18=Bobby Womack - Fly Me to the Moon
TTITLE19=Johnnie Taylor - Who's Making Love
TTITLE20=Eddie Floyd - I've Never Found a Girl (To Love Me Like You Do
TTITLE20=)
TTITLE21=The Isley Brothers - It's Your Thing
TTITLE22=Bobby Womack - Nobody Wants You When You're Down and Out
TTITLE23=Johnnie Taylor - Cheaper to Keep Her
TTITLE24=Johnny "Guitar" Watson - A Real Mother for Ya
EXTD=R2 72270 - Rhino Records 
EXTT0=
EXTT1=
EXTT2=
EXTT3=
EXTT4=
EXTT5=
EXTT6=
EXTT7=
EXTT8=
EXTT9=
EXTT10=
EXTT11=
EXTT12=
EXTT13=
EXTT14=
EXTT15=
EXTT16=
EXTT17=
EXTT18=
EXTT19=
EXTT20=
EXTT21=
EXTT22=
EXTT23=
EXTT24=
PLAYORDER=
